HIERARCHY
ROOT hip
{
	OFFSET 0.000000 0.000000 0.000000 
	CHANNELS 6 Xposition Yposition Zposition Xrotation Zrotation Yrotation
	JOINT abdomen
	{
		OFFSET 0.000000 3.402643 0.000000 
		CHANNELS 3 Xrotation Zrotation Yrotation
		JOINT chest
		{
			OFFSET 0.000000 8.438565 -0.680529 
			CHANNELS 3 Xrotation Zrotation Yrotation
			JOINT neck
			{
				OFFSET 0.000000 10.207942 -0.272212 
				CHANNELS 3 Xrotation Zrotation Yrotation
				JOINT head
				{
					OFFSET 0.000000 3.130431 0.000000 
					CHANNELS 3 Xrotation Zrotation Yrotation
					End Site
					{
						OFFSET 0.000000 3.130435 0.000000 
					}
				}
			}
			JOINT lCollar
			{
				OFFSET 3.470700 6.669187 -0.816635 
				CHANNELS 3 Yrotation Zrotation Xrotation
				JOINT lShldr
				{
					OFFSET 3.198488 0.000000 0.000000 
					CHANNELS 3 Zrotation Yrotation Xrotation
					JOINT lForeArm
					{
						OFFSET 10.139888 0.000000 0.000000 
						CHANNELS 3 Yrotation Zrotation Xrotation
						JOINT lHand
						{
							OFFSET 8.370511 0.000000 0.000000 
							CHANNELS 3 Zrotation Yrotation Xrotation
							End Site
							{
								OFFSET 4.083176 0.000000 0.000000 
							}
						}
					}
				}
			}
			JOINT rCollar
			{
				OFFSET -3.470700 6.669187 -0.816635 
				CHANNELS 3 Yrotation Zrotation Xrotation
				JOINT rShldr
				{
					OFFSET -3.198488 0.000000 0.000000 
					CHANNELS 3 Zrotation Yrotation Xrotation
					JOINT rForeArm
					{
						OFFSET -10.139888 0.000000 0.000000 
						CHANNELS 3 Yrotation Zrotation Xrotation
						JOINT rHand
						{
							OFFSET -8.370511 0.000000 0.000000 
							CHANNELS 3 Zrotation Yrotation Xrotation
							End Site
							{
								OFFSET -4.083176 0.000000 0.000000 
							}
						}
					}
				}
			}
		}
	}
	JOINT lThigh
	{
		OFFSET 5.308129 -1.633274 1.361059 
		CHANNELS 3 Xrotation Zrotation Yrotation
		JOINT lShin
		{
			OFFSET -2.041588 -20.007561 0.000000 
			CHANNELS 3 Xrotation Zrotation Yrotation
			JOINT lFoot
			{
				OFFSET 0.000000 -19.190928 -1.224953 
				CHANNELS 3 Xrotation Yrotation Zrotation
				End Site
				{
					OFFSET 0.000000 -2.449906 4.627600 
				}
			}
		}
	}
	JOINT rThigh
	{
		OFFSET -5.308129 -1.633274 1.361059 
		CHANNELS 3 Xrotation Zrotation Yrotation
		JOINT rShin
		{
			OFFSET 2.041588 -20.007561 0.000000 
			CHANNELS 3 Xrotation Zrotation Yrotation
			JOINT rFoot
			{
				OFFSET 0.000000 -19.190928 -1.224953 
				CHANNELS 3 Xrotation Yrotation Zrotation
				End Site
				{
					OFFSET 0.000000 -2.449906 4.627600 
				}
			}
		}
	}
}
MOTION
Frames: 10
Frame Time: 0.016667
-0.761804 42.797157 2.887619 0.810791 1.406110 -7.382210 -20.019699 0.262662 -0.106095 20.048800 0.693332 -0.015911 4.678690 -0.906483 -0.931780 8.389090 5.249120 -0.212606 2.000000 -2.000000 0.000000 97.598602 178.744003 6.676930 31.181999 -0.331813 0.070845 0.045867 -0.019858 -144.031006 -2.000000 2.000000 0.000000 -97.245903 -175.587997 3.191870 -18.828300 0.344248 0.044126 -0.055347 0.017412 -143.151993 -1.685099 -2.268746 -0.770264 26.694510 3.505024 1.800037 -21.320097 19.305908 8.120587 -9.640131 3.409946 19.759760 29.591812 -2.966704 -2.140764 -18.247908 -11.738624 -3.631642 
-1.065315 42.742336 3.123035 -0.644736 1.445220 -6.871730 -19.931700 0.135387 -0.028320 20.371099 0.781246 0.007236 4.789340 -0.833070 -0.978823 8.252070 5.279560 -0.252257 2.000000 -2.000000 0.000000 -82.371597 0.684242 -171.514999 31.191700 -0.331801 0.070865 0.046039 -0.021187 -144.509995 -2.000000 2.000000 0.000000 -98.056999 -176.207001 5.586680 -18.584200 0.344435 0.043575 -0.055119 0.015182 -142.350998 -0.789909 -1.905353 0.048773 28.508877 3.526757 1.936618 -20.056168 18.369473 7.219075 -8.165601 3.590809 19.205763 30.599968 -3.013427 -2.187837 -19.117243 -11.688820 -3.689180 
-1.392365 42.652634 3.352486 -2.099890 0.936871 -6.743330 -20.127001 0.235939 0.100742 20.390600 0.761716 0.085684 5.518210 -0.872281 -0.910143 8.271850 5.298860 -0.258782 2.000000 -2.000000 0.000000 -82.312202 0.034383 -169.628998 30.654600 -0.332460 0.069766 0.046195 -0.022325 -144.919998 -2.000000 2.000000 0.000000 -99.541901 -177.132004 7.024430 -18.789301 0.344278 0.044038 -0.054662 0.009183 -140.203003 -0.122182 -0.837493 0.927980 30.902163 3.540529 2.057130 -19.452360 17.134819 6.522030 -6.703929 4.300006 18.551947 31.471016 -3.052785 -2.225755 -19.637196 -11.338771 -3.556769 
-1.741715 42.543880 3.591160 -3.594730 1.335260 -6.636590 -20.331699 0.054786 0.312970 20.654301 0.917967 0.148205 6.430670 -0.959225 -0.810413 8.340330 5.278770 -0.253936 2.000000 -2.000000 0.000000 -82.028297 -1.153250 -168.014999 29.873400 -0.333399 0.068156 0.045946 -0.020482 -144.255997 -2.000000 2.000000 0.000000 -101.730003 -178.985001 7.937060 -19.629101 0.343619 0.045931 -0.054560 0.007189 -139.490005 0.754265 -0.677890 1.684348 32.809475 3.482941 2.171701 -18.315678 16.146372 5.831062 -5.564415 4.166452 18.002296 33.042946 -3.067909 -2.317070 -20.389862 -10.858626 -3.425845 
-2.115632 42.439640 3.838259 -5.333370 1.283480 -6.906890 -20.477699 -0.117874 0.575643 20.888700 0.732410 0.248510 7.625020 -0.630051 -0.481325 8.527850 5.403630 -0.129273 2.000000 -2.000000 0.000000 -81.490799 -2.645040 -167.005997 28.867500 -0.334576 0.066064 0.045483 -0.016489 -142.820007 -2.000000 2.000000 0.000000 -104.101997 178.160995 6.908710 -20.781500 0.342669 0.048511 -0.054522 0.006288 -139.167999 1.767493 -0.237821 2.593603 35.092140 3.494302 2.320816 -16.887022 15.543112 5.273518 -4.077647 4.573153 17.740574 34.394981 -3.101196 -2.358549 -20.699646 -10.855680 -3.348856 
-2.512006 42.323944 4.074708 -7.002580 0.765730 -7.262010 -20.682301 -0.120866 0.734542 21.074200 0.468731 0.316814 8.871750 -0.298682 -0.193360 8.725680 5.567200 -0.028970 2.000000 -2.000000 0.000000 -81.295898 -4.218080 -167.334000 27.988600 -0.335575 0.064220 0.045273 -0.014311 -142.039001 -2.000000 2.000000 0.000000 -107.334000 174.546997 6.477860 -22.666300 0.341005 0.052689 -0.054531 0.006506 -139.246002 2.453900 0.917181 3.379827 38.003170 3.385540 2.493406 -15.357216 14.676874 4.665056 -2.324965 5.384263 17.660645 35.236847 -3.134406 -2.396891 -21.359684 -10.471149 -3.179404 
-2.884756 42.192669 4.264122 -8.378920 0.115937 -8.308090 -20.954399 -0.040211 0.977439 21.152300 -0.039060 0.448806 10.105900 -0.428257 0.084180 8.960950 5.545340 0.060449 2.000000 -2.000000 0.000000 -81.140503 -5.558700 -168.503006 27.617500 -0.335988 0.063437 0.045268 -0.014257 -142.018997 -2.000000 2.000000 0.000000 -111.043999 170.149994 5.523130 -25.351801 0.338398 0.058542 -0.054452 0.004156 -138.406006 2.556568 2.307836 4.832332 41.691162 3.214137 2.705794 -13.305249 13.890808 3.960123 -1.048106 6.054292 17.585684 36.002895 -3.138195 -2.437088 -21.411766 -9.327038 -2.592482 
-3.312181 42.078262 4.389975 -9.678730 0.818264 -9.651260 -21.109600 -0.248007 1.257630 21.464800 -0.039058 0.536484 10.988900 -0.867661 0.460227 9.106870 5.427070 0.220511 2.000000 -2.000000 0.000000 -80.642998 -6.878380 -169.067001 28.056900 -0.335498 0.064364 0.045463 -0.016298 -142.751999 -2.000000 2.000000 0.000000 -115.132004 164.884003 4.579230 -28.750299 0.334711 0.065763 -0.054411 0.001996 -137.634995 2.021638 2.435993 6.207160 45.487289 2.973099 2.932555 -9.954832 13.110255 3.021341 -0.399605 5.247354 17.487740 37.404984 -3.161993 -2.495911 -22.288481 -7.581019 -1.916345 
-3.771755 41.980827 4.400535 -10.629600 1.670080 -10.821100 -21.412201 -0.404551 1.396240 21.308599 0.156237 0.568483 11.953400 -1.308080 0.785775 9.341130 5.317610 0.359709 2.000000 -2.000000 0.000000 -80.028198 -8.099080 -169.063995 28.984699 -0.334441 0.066309 0.045611 -0.017685 -143.250000 -2.000000 2.000000 0.000000 -119.961998 159.404007 3.869900 -32.744499 0.329839 0.073953 -0.054520 0.006233 -139.147995 0.181579 2.633592 7.004561 50.081150 2.578966 3.202752 -4.292238 12.867916 1.826784 -0.000815 4.335379 17.491085 38.407383 -3.149369 -2.537765 -23.183565 -6.190188 -1.320111 
-4.168512 41.804646 4.270761 -11.059900 1.753940 -11.573100 -21.578300 -0.540869 1.505350 20.986300 -0.380849 0.592782 12.435300 -1.598480 0.864612 9.555500 5.188910 0.416249 2.000000 -2.000000 0.000000 -79.257103 -9.729110 -168.709000 30.400700 -0.332767 0.069244 0.045768 -0.019043 -143.738007 -2.000000 2.000000 0.000000 -125.219002 153.987000 1.064630 -37.734798 0.322971 0.083675 -0.054577 0.007572 -139.626999 -3.694801 4.028420 6.892642 56.416740 2.063645 3.548218 3.469496 12.783224 0.171831 0.332700 4.340925 17.628870 38.157738 -3.200791 -2.528684 -23.481821 -5.549584 -0.987897 
